<svg version="1.1" id="Layer_1" xmlns="http://www.w3.org/2000/svg" xmlns:xlink="http://www.w3.org/1999/xlink" x="0px" y="0px"
	 width="100%" viewBox="0 0 831 840" enable-background="new 0 0 831 840" xml:space="preserve">
<path fill="#5AB873" opacity="1.000000" stroke="none" 
	d="
M832.000000,202.000000 
	C832.000000,215.687561 832.000000,229.375122 831.631287,243.743103 
	C829.828430,255.143875 828.895874,265.962189 826.826477,276.558502 
	C824.518066,288.378418 818.133667,298.563416 812.675171,309.211639 
	C802.222656,329.601807 787.414062,345.256104 768.213928,357.516846 
	C737.363159,377.217346 703.117981,385.131409 667.309265,387.918915 
	C655.919922,388.805511 644.456665,388.743591 632.680298,388.915710 
	C612.697327,383.864258 595.712158,389.962463 580.090332,401.469360 
	C566.373474,411.572998 556.582886,425.309082 546.146973,438.442719 
	C541.570374,444.202423 542.228943,449.631348 548.578125,453.541595 
	C559.878357,460.501190 571.364502,467.158997 582.993774,474.212524 
	C590.832153,479.785034 596.329590,486.781006 599.888550,495.741455 
	C600.276428,498.420837 601.010620,500.707520 600.952148,502.973724 
	C600.723572,511.835205 600.244507,520.690186 599.614746,529.856506 
	C595.539856,542.229126 591.423706,554.152466 582.467163,563.985718 
	C573.200500,570.215637 566.359619,570.512207 558.097900,563.614563 
	C553.085205,559.429565 548.770813,554.148193 545.053223,548.734131 
	C539.734924,540.988892 533.269226,534.798096 525.006042,530.463196 
	C515.725037,525.594421 510.295746,527.477966 506.955536,537.444641 
	C504.703796,544.163513 503.496552,551.234253 501.857056,558.155823 
	C499.620483,567.598022 502.066376,574.331360 510.943817,577.648376 
	C527.629272,583.882935 537.888367,597.355957 548.681702,610.002502 
	C557.947998,620.859802 561.453247,634.526917 563.330872,648.589050 
	C566.751099,674.205261 562.414307,697.999695 546.481873,718.790039 
	C540.665894,726.379333 533.550659,732.973022 526.822021,740.068726 
	C526.648804,740.290894 526.681763,740.465210 526.714722,740.639587 
	C526.791077,740.408386 526.867371,740.177246 527.354797,740.062073 
	C538.779724,737.116699 549.867920,734.297913 560.792969,730.947205 
	C590.447327,721.851929 618.122192,708.134460 646.053101,694.065308 
	C648.633423,694.053467 650.820129,694.102905 653.004089,694.557129 
	C653.232605,696.407349 653.146484,698.006165 653.756653,699.268433 
	C655.362854,702.591431 657.622620,705.626282 658.996399,709.028625 
	C663.760498,720.827637 667.937866,732.871765 672.955872,744.557556 
	C677.260132,754.581238 675.338257,760.587402 665.940247,764.988098 
	C652.888794,771.099609 639.839478,777.225464 626.653870,783.038086 
	C604.639160,792.742981 581.445007,798.140198 557.636719,800.933472 
	C547.379944,802.136841 543.414551,799.593994 539.034851,790.040771 
	C536.787903,785.139648 535.099731,779.954773 532.552551,775.224731 
	C527.117554,765.132202 520.296509,755.598877 522.039673,743.231201 
	C515.587463,743.375183 513.000671,746.804321 514.255615,752.585571 
	C515.260193,757.213318 516.203064,761.860413 516.972595,766.532043 
	C518.940186,778.476562 521.336731,790.384766 522.556580,802.409424 
	C524.023621,816.870056 524.355408,821.745728 508.241516,825.941101 
	C501.139740,827.790161 493.947113,829.407227 486.707153,830.585327 
	C468.450623,833.556091 450.146484,836.235657 431.855286,838.991333 
	C426.914795,839.735596 421.952362,840.334412 417.000000,841.000000 
	C399.979095,841.000000 382.958221,841.000000 365.252014,840.628540 
	C361.575989,840.171143 358.579376,840.175659 355.595612,839.982361 
	C347.090607,839.431274 343.886200,837.030151 344.042542,828.285828 
	C344.160675,821.678650 344.585571,815.073120 345.018951,808.476318 
	C345.582611,799.896667 345.960419,791.285217 347.026184,782.763489 
	C348.132507,773.917908 344.867432,767.577759 337.843719,767.051147 
	C330.754791,766.519653 323.642456,766.258972 316.535675,766.017456 
	C304.934448,765.623108 293.271149,765.959473 281.739075,764.872742 
	C262.312256,763.042053 242.832443,761.117249 223.626877,757.781311 
	C204.687073,754.491516 185.919342,749.929810 167.327652,744.981140 
	C137.322098,736.994263 110.438690,721.715332 83.662018,706.653076 
	C63.365410,695.235901 46.593502,679.115967 31.828667,661.169006 
	C19.470257,646.147034 9.058545,629.779968 1.000000,612.000000 
	C1.000000,611.555542 1.000000,611.111084 1.329715,610.193604 
	C3.280210,605.589050 6.912589,605.317383 10.580537,604.985657 
	C17.777649,604.334778 24.992182,603.790588 32.153816,602.853210 
	C43.337769,601.389343 54.524796,599.870972 65.634087,597.936707 
	C76.539070,596.037903 87.373360,593.703613 98.187325,591.326843 
	C102.199936,590.444824 106.327614,589.284912 107.058899,584.057007 
	C107.169983,583.262817 108.270721,582.606995 108.944458,582.281189 
	C108.645050,584.892822 108.314903,587.110474 107.990234,589.291321 
	C110.245590,592.549805 113.026695,593.627502 117.039925,592.494568 
	C134.326187,587.614868 151.728882,583.144043 168.990570,578.181396 
	C216.300156,564.579956 257.354736,540.982056 289.640259,503.064392 
	C311.077301,477.887695 327.861664,449.902832 337.589722,418.496857 
	C345.388855,393.318329 350.770874,367.300690 355.778168,341.375854 
	C359.957092,319.739532 362.652008,297.758514 364.820343,275.813202 
	C366.168915,262.164612 363.082214,260.141205 350.052124,261.611481 
	C359.320007,254.449844 359.770416,247.356644 350.537201,239.787827 
	C338.910919,230.257309 326.936066,220.991180 320.565308,206.944305 
	C324.708282,208.901001 328.951202,210.278549 332.104126,212.944931 
	C335.460754,215.783569 337.439056,220.200989 340.636566,223.290024 
	C346.455750,228.911774 352.501099,234.367249 358.956238,239.221695 
	C360.903717,240.686264 365.348846,241.134109 367.149811,239.884979 
	C369.234314,238.439194 369.848938,234.663605 370.720734,231.784164 
	C371.066162,230.643250 370.116089,229.171188 370.215576,227.885483 
	C371.496582,211.334061 372.994141,194.798523 374.169556,178.240005 
	C375.568481,158.532761 377.111603,138.821960 377.836639,119.084961 
	C378.438293,102.706566 371.149170,98.316795 356.631683,106.302315 
	C337.832977,116.642776 322.141724,131.144684 306.864929,145.975876 
	C300.160156,152.485123 298.763153,160.744614 302.667450,169.410934 
	C305.602142,175.925003 309.089417,182.188858 312.073181,188.682419 
	C314.548950,194.070480 316.649109,199.631119 318.617859,204.961090 
	C306.981171,194.591797 301.117828,180.912003 295.117493,167.427185 
	C292.525269,161.601624 292.978638,155.134949 297.404297,150.237503 
	C305.907593,140.827744 314.639771,131.582535 323.813477,122.831444 
	C335.524872,111.659554 349.042206,103.068916 364.076813,96.886650 
	C370.524078,94.235527 374.769257,89.418762 375.942993,82.371689 
	C376.776520,77.367126 377.173737,72.289047 378.033875,67.289932 
	C380.567139,52.566986 384.709412,38.327366 391.537811,24.978718 
	C395.491760,17.249210 403.191620,14.124591 411.519714,16.882921 
	C428.740967,22.586737 444.510864,31.261198 459.577240,41.191433 
	C466.537140,45.778690 473.034149,51.078033 479.652557,56.169544 
	C483.110687,58.829857 486.111328,58.578049 488.452972,54.974945 
	C491.034332,51.002960 493.151428,46.730419 495.709656,42.742035 
	C506.827637,25.408726 520.076416,10.252772 539.000000,1.000000 
	C544.022095,1.000000 549.044189,1.000000 554.691895,1.338106 
	C577.740417,9.477251 598.691406,19.675093 616.612122,35.823517 
	C626.275513,44.531250 637.782104,50.167076 651.702271,47.084213 
	C653.603760,46.663116 655.711365,46.834915 657.676147,47.092903 
	C669.686890,48.669979 681.697083,50.261066 693.682007,52.021095 
	C707.783447,54.091949 721.624084,57.167042 734.415039,63.792999 
	C739.622253,66.490402 744.651794,69.560570 749.971680,72.005104 
	C768.923645,80.713623 786.021729,91.962967 797.927856,109.408508 
	C804.619080,119.212791 811.137756,129.513458 815.414185,140.494034 
	C821.125854,155.159897 824.717896,170.666168 828.938171,185.889694 
	C830.393433,191.139297 831.003723,196.623154 832.000000,202.000000 
M547.071045,132.503189 
	C546.705444,132.291733 546.339844,132.080261 545.403687,131.570526 
	C544.212646,130.660522 543.021606,129.750519 541.519470,128.274612 
	C534.649292,121.197716 529.916382,121.719788 525.305420,130.373932 
	C523.766663,133.261993 522.357117,136.488541 521.988892,139.687042 
	C519.559509,160.788834 525.843445,179.394638 538.842651,195.923965 
	C539.449768,196.696030 540.285278,197.299820 541.057617,197.929031 
	C551.675537,206.579529 563.857422,203.089691 566.634705,189.676910 
	C570.884583,169.152786 565.344238,150.810364 551.279175,135.208023 
	C550.242065,134.057602 548.268921,133.750977 546.859985,133.006165 
	C546.859985,133.006165 546.917603,133.130417 547.071045,132.503189 
M451.304108,44.196655 
	C448.897400,42.712200 446.593536,41.018082 444.066589,39.778790 
	C431.703125,33.715401 419.307922,27.714611 406.859772,21.827438 
	C403.553345,20.263731 400.460541,20.928347 399.035217,24.620979 
	C394.844696,35.477127 389.975616,46.180706 387.069519,57.384289 
	C385.177246,64.679436 385.658722,72.784966 386.210754,80.445732 
	C386.536224,84.962280 391.142761,87.486404 395.518707,86.611542 
	C411.782562,83.359993 427.981964,80.062912 443.104584,72.603783 
	C448.559570,69.913177 455.061920,69.086052 461.198273,68.118637 
	C466.148590,67.338211 468.903625,65.251694 467.714996,60.372997 
	C466.917847,57.101254 464.791840,53.737476 462.328552,51.394684 
	C459.373596,48.584320 455.427734,46.815804 451.304108,44.196655 
M593.685303,29.816389 
	C582.190918,20.835949 570.056702,13.218937 555.623047,9.599257 
	C545.167053,6.977063 536.670959,8.377863 529.163696,16.955727 
	C522.724854,24.312784 515.385620,30.997225 507.811584,37.207031 
	C502.255127,41.762634 500.781219,46.886593 502.089020,53.465988 
	C502.807037,57.078407 504.868683,58.623089 508.487823,58.005932 
	C515.339539,56.837528 522.181274,55.610401 529.034546,54.451622 
	C540.008911,52.596035 550.929749,49.914722 561.981628,49.150528 
	C577.187866,48.099075 591.953308,45.821579 606.041992,39.506115 
	C602.323975,36.561768 598.305054,33.379089 593.685303,29.816389 
M608.474121,41.532234 
	C608.474121,41.532234 608.448181,41.483150 608.474121,41.532234 
z"/>
<path fill="#FFFFFF00" opacity="1.000000" stroke="none" 
	d="
M320.185699,206.932251 
	C326.936066,220.991180 338.910919,230.257309 350.537201,239.787827 
	C359.770416,247.356644 359.320007,254.449844 349.681671,261.654419 
	C343.007843,264.932861 336.583588,267.388916 330.774872,270.871613 
	C311.333893,282.527710 295.975983,298.859009 281.059967,315.590057 
	C278.446899,318.521057 276.990509,322.077393 278.644623,326.458374 
	C280.177948,330.519409 280.876312,334.894318 281.961884,339.126038 
	C289.563110,368.757355 302.175201,395.891968 321.941315,419.475800 
	C327.055084,425.577240 325.808167,429.620483 317.969208,430.889954 
	C294.191406,434.740570 271.296722,441.647644 248.747818,449.940186 
	C237.088715,454.227875 227.686310,461.133698 224.423294,473.432526 
	C219.988373,490.148407 219.227615,507.435181 219.067612,524.676514 
	C219.008026,531.097473 219.801636,537.521729 219.962158,543.950623 
	C220.122879,550.388184 218.908661,551.325073 212.758606,548.969177 
	C195.492493,542.355286 178.050339,536.399902 159.742065,533.355774 
	C152.475967,532.147522 144.678909,530.635803 138.580917,535.441162 
	C133.082794,539.773743 128.600113,545.598511 124.363815,551.282593 
	C117.467026,560.536560 111.481812,570.385254 108.913712,581.887207 
	C108.270721,582.606995 107.169983,583.262817 107.058899,584.057007 
	C106.327614,589.284912 102.199936,590.444824 98.187325,591.326843 
	C87.373360,593.703613 76.539070,596.037903 65.634087,597.936707 
	C54.524796,599.870972 43.337769,601.389343 32.153816,602.853210 
	C24.992182,603.790588 17.777649,604.334778 10.580537,604.985657 
	C6.912589,605.317383 3.280210,605.589050 1.329715,609.860352 
	C1.000000,407.077423 1.000000,204.154846 1.000000,1.000000 
	C180.020828,1.000000 359.041748,1.000000 538.531372,1.000000 
	C520.076416,10.252772 506.827637,25.408726 495.709656,42.742035 
	C493.151428,46.730419 491.034332,51.002960 488.452972,54.974945 
	C486.111328,58.578049 483.110687,58.829857 479.652557,56.169544 
	C473.034149,51.078033 466.537140,45.778690 459.577240,41.191433 
	C444.510864,31.261198 428.740967,22.586737 411.519714,16.882921 
	C403.191620,14.124591 395.491760,17.249210 391.537811,24.978718 
	C384.709412,38.327366 380.567139,52.566986 378.033875,67.289932 
	C377.173737,72.289047 376.776520,77.367126 375.942993,82.371689 
	C374.769257,89.418762 370.524078,94.235527 364.076813,96.886650 
	C349.042206,103.068916 335.524872,111.659554 323.813477,122.831444 
	C314.639771,131.582535 305.907593,140.827744 297.404297,150.237503 
	C292.978638,155.134949 292.525269,161.601624 295.117493,167.427185 
	C301.117828,180.912003 306.981171,194.591797 318.725586,205.222931 
	C319.482635,206.070068 319.834167,206.501160 320.185699,206.932251 
z"/>
<path fill="#FFFFFF00" opacity="1.000000" stroke="none" 
	d="
M633.027222,389.115692 
	C644.456665,388.743591 655.919922,388.805511 667.309265,387.918915 
	C703.117981,385.131409 737.363159,377.217346 768.213928,357.516846 
	C787.414062,345.256104 802.222656,329.601807 812.675171,309.211639 
	C818.133667,298.563416 824.518066,288.378418 826.826477,276.558502 
	C828.895874,265.962189 829.828430,255.143875 831.631287,244.211761 
	C832.000000,442.913971 832.000000,641.827942 832.000000,841.000000 
	C693.979187,841.000000 555.958252,841.000000 417.468658,841.000000 
	C421.952362,840.334412 426.914795,839.735596 431.855286,838.991333 
	C450.146484,836.235657 468.450623,833.556091 486.707153,830.585327 
	C493.947113,829.407227 501.139740,827.790161 508.241516,825.941101 
	C524.355408,821.745728 524.023621,816.870056 522.556580,802.409424 
	C521.336731,790.384766 518.940186,778.476562 516.972595,766.532043 
	C516.203064,761.860413 515.260193,757.213318 514.255615,752.585571 
	C513.000671,746.804321 515.587463,743.375183 522.039673,743.231201 
	C520.296509,755.598877 527.117554,765.132202 532.552551,775.224731 
	C535.099731,779.954773 536.787903,785.139648 539.034851,790.040771 
	C543.414551,799.593994 547.379944,802.136841 557.636719,800.933472 
	C581.445007,798.140198 604.639160,792.742981 626.653870,783.038086 
	C639.839478,777.225464 652.888794,771.099609 665.940247,764.988098 
	C675.338257,760.587402 677.260132,754.581238 672.955872,744.557556 
	C667.937866,732.871765 663.760498,720.827637 658.996399,709.028625 
	C657.622620,705.626282 655.362854,702.591431 653.756653,699.268433 
	C653.146484,698.006165 653.232605,696.407349 653.470459,694.499390 
	C695.099609,694.024597 736.259521,694.013611 777.419495,693.998718 
	C784.709900,693.996033 784.998352,693.705322 784.998596,686.330200 
	C785.000854,614.508301 785.000671,542.686462 784.999023,470.864563 
	C784.998840,463.149323 784.928040,463.084595 776.917603,462.608276 
	C774.867493,461.836395 773.026550,461.074036 771.177490,461.053589 
	C757.455200,460.901672 743.731262,460.897186 730.005371,460.424377 
	C729.325256,455.821259 728.871704,451.588989 727.930542,447.468079 
	C724.179565,431.044128 714.643982,419.330536 697.818481,416.291168 
	C678.455322,412.793304 658.880859,409.822205 638.956787,410.609375 
	C636.936951,403.190277 634.982056,396.152985 633.027222,389.115692 
z"/>
<path fill="#FFFFFF00" opacity="1.000000" stroke="none" 
	d="
M1.000000,612.468628 
	C9.058545,629.779968 19.470257,646.147034 31.828667,661.169006 
	C46.593502,679.115967 63.365410,695.235901 83.662018,706.653076 
	C110.438690,721.715332 137.322098,736.994263 167.327652,744.981140 
	C185.919342,749.929810 204.687073,754.491516 223.626877,757.781311 
	C242.832443,761.117249 262.312256,763.042053 281.739075,764.872742 
	C293.271149,765.959473 304.934448,765.623108 316.535675,766.017456 
	C323.642456,766.258972 330.754791,766.519653 337.843719,767.051147 
	C344.867432,767.577759 348.132507,773.917908 347.026184,782.763489 
	C345.960419,791.285217 345.582611,799.896667 345.018951,808.476318 
	C344.585571,815.073120 344.160675,821.678650 344.042542,828.285828 
	C343.886200,837.030151 347.090607,839.431274 355.595612,839.982361 
	C358.579376,840.175659 361.575989,840.171143 364.783356,840.628540 
	C243.756210,841.000000 122.512413,841.000000 1.000000,841.000000 
	C1.000000,764.979309 1.000000,688.958313 1.000000,612.468628 
z"/>
<path fill="#FFFFFF00" opacity="1.000000" stroke="none" 
	d="
M832.000000,201.531342 
	C831.003723,196.623154 830.393433,191.139297 828.938171,185.889694 
	C824.717896,170.666168 821.125854,155.159897 815.414185,140.494034 
	C811.137756,129.513458 804.619080,119.212791 797.927856,109.408508 
	C786.021729,91.962967 768.923645,80.713623 749.971680,72.005104 
	C744.651794,69.560570 739.622253,66.490402 734.415039,63.792999 
	C721.624084,57.167042 707.783447,54.091949 693.682007,52.021095 
	C681.697083,50.261066 669.686890,48.669979 657.676147,47.092903 
	C655.711365,46.834915 653.603760,46.663116 651.702271,47.084213 
	C637.782104,50.167076 626.275513,44.531250 616.612122,35.823517 
	C598.691406,19.675093 577.740417,9.477251 555.158813,1.338106 
	C647.248779,1.000000 739.497559,1.000000 832.000000,1.000000 
	C832.000000,67.687347 832.000000,134.375015 832.000000,201.531342 
z"/>
<path fill="#DBB856" opacity="1.000000" stroke="none" 
	d="
M777.123108,462.961365 
	C784.928040,463.084595 784.998840,463.149323 784.999023,470.864563 
	C785.000671,542.686462 785.000854,614.508301 784.998596,686.330200 
	C784.998352,693.705322 784.709900,693.996033 777.419495,693.998718 
	C736.259521,694.013611 695.099609,694.024597 653.473267,694.094666 
	C650.820129,694.102905 648.633423,694.053467 645.614319,694.031433 
	C630.512146,693.927856 616.242310,693.796936 601.881592,693.315308 
	C601.194519,690.603577 600.162842,688.257019 600.084412,685.879028 
	C599.854004,678.893860 600.008545,671.896240 600.001404,664.903503 
	C599.955444,619.784851 599.906494,574.666260 599.858521,529.547607 
	C600.244507,520.690186 600.723572,511.835205 600.952148,502.973724 
	C601.010620,500.707520 600.276428,498.420837 599.923340,495.242310 
	C599.960999,486.519928 600.242676,478.687744 599.911438,470.881622 
	C599.688049,465.617249 602.371643,463.668427 606.889832,463.124023 
	C608.696655,462.906281 610.545288,463.011566 612.374878,463.010895 
	C667.290955,462.991241 722.207031,462.976685 777.123108,462.961365 
M715.184509,619.894531 
	C736.284119,610.468811 746.200745,593.677124 742.780090,569.576782 
	C740.546936,553.843140 726.058838,537.949768 706.424438,534.613586 
	C676.675842,529.558716 647.527283,557.237427 656.611816,589.990417 
	C663.625793,615.277893 687.850281,628.110657 715.184509,619.894531 
z"/>
<path fill="#12AD57" opacity="1.000000" stroke="none" 
	d="
M108.944450,582.281189 
	C111.481812,570.385254 117.467026,560.536560 124.363815,551.282593 
	C128.600113,545.598511 133.082794,539.773743 138.580917,535.441162 
	C144.678909,530.635803 152.475967,532.147522 159.742065,533.355774 
	C178.050339,536.399902 195.492493,542.355286 212.758606,548.969177 
	C218.908661,551.325073 220.122879,550.388184 219.962158,543.950623 
	C219.801636,537.521729 219.008026,531.097473 219.067612,524.676514 
	C219.227615,507.435181 219.988373,490.148407 224.423294,473.432526 
	C227.686310,461.133698 237.088715,454.227875 248.747818,449.940186 
	C271.296722,441.647644 294.191406,434.740570 317.969208,430.889954 
	C325.808167,429.620483 327.055084,425.577240 321.941315,419.475800 
	C302.175201,395.891968 289.563110,368.757355 281.961884,339.126038 
	C280.876312,334.894318 280.177948,330.519409 278.644623,326.458374 
	C276.990509,322.077393 278.446899,318.521057 281.059967,315.590057 
	C295.975983,298.859009 311.333893,282.527710 330.774872,270.871613 
	C336.583588,267.388916 343.007843,264.932861 349.520538,261.963501 
	C363.082214,260.141205 366.168915,262.164612 364.820343,275.813202 
	C362.652008,297.758514 359.957092,319.739532 355.778168,341.375854 
	C350.770874,367.300690 345.388855,393.318329 337.589722,418.496857 
	C327.861664,449.902832 311.077301,477.887695 289.640259,503.064392 
	C257.354736,540.982056 216.300156,564.579956 168.990570,578.181396 
	C151.728882,583.144043 134.326187,587.614868 117.039925,592.494568 
	C113.026695,593.627502 110.245590,592.549805 107.990234,589.291321 
	C108.314903,587.110474 108.645050,584.892822 108.944450,582.281189 
z"/>
<path fill="#F7F4CB" opacity="1.000000" stroke="none" 
	d="
M601.972534,693.665955 
	C616.242310,693.796936 630.512146,693.927856 645.220703,694.092712 
	C618.122192,708.134460 590.447327,721.851929 560.792969,730.947205 
	C549.867920,734.297913 538.779724,737.116699 527.375671,740.081116 
	C526.985413,739.984131 527.028198,740.020935 527.028198,740.020935 
	C533.550659,732.973022 540.665894,726.379333 546.481873,718.790039 
	C562.414307,697.999695 566.751099,674.205261 563.330872,648.589050 
	C561.453247,634.526917 557.947998,620.859802 548.681702,610.002502 
	C537.888367,597.355957 527.629272,583.882935 510.943817,577.648376 
	C502.066376,574.331360 499.620483,567.598022 501.857056,558.155823 
	C503.496552,551.234253 504.703796,544.163513 506.955536,537.444641 
	C510.295746,527.477966 515.725037,525.594421 525.006042,530.463196 
	C533.269226,534.798096 539.734924,540.988892 545.053223,548.734131 
	C548.770813,554.148193 553.085205,559.429565 558.097900,563.614563 
	C566.359619,570.512207 573.200500,570.215637 582.499878,564.467590 
	C582.859375,582.952637 582.873352,601.093445 582.878296,619.234192 
	C582.883789,639.538635 582.846680,659.843140 582.898376,680.147461 
	C582.920227,688.729492 587.407043,693.367432 595.994446,693.824219 
	C597.978699,693.929810 599.979431,693.726868 601.972534,693.665955 
z"/>
<path fill="#12AD57" opacity="1.000000" stroke="none" 
	d="
M320.565308,206.944305 
	C319.834167,206.501160 319.482635,206.070068 319.023376,205.377136 
	C316.649109,199.631119 314.548950,194.070480 312.073181,188.682419 
	C309.089417,182.188858 305.602142,175.925003 302.667450,169.410934 
	C298.763153,160.744614 300.160156,152.485123 306.864929,145.975876 
	C322.141724,131.144684 337.832977,116.642776 356.631683,106.302315 
	C371.149170,98.316795 378.438293,102.706566 377.836639,119.084961 
	C377.111603,138.821960 375.568481,158.532761 374.169556,178.240005 
	C372.994141,194.798523 371.496582,211.334061 370.215576,227.885483 
	C370.116089,229.171188 371.066162,230.643250 370.720734,231.784164 
	C369.848938,234.663605 369.234314,238.439194 367.149811,239.884979 
	C365.348846,241.134109 360.903717,240.686264 358.956238,239.221695 
	C352.501099,234.367249 346.455750,228.911774 340.636566,223.290024 
	C337.439056,220.200989 335.460754,215.783569 332.104126,212.944931 
	C328.951202,210.278549 324.708282,208.901001 320.565308,206.944305 
z"/>
<path fill="#F7F5CC" opacity="1.000000" stroke="none" 
	d="
M632.680298,388.915710 
	C634.982056,396.152985 636.936951,403.190277 638.758301,410.880005 
	C638.550781,413.077332 637.990540,414.798584 638.477234,416.140045 
	C643.897339,431.079285 649.479187,445.959808 654.550049,460.905884 
	C635.023010,460.970337 615.963379,460.977051 596.903687,461.003204 
	C587.716309,461.015808 583.655945,464.751495 582.772888,473.943024 
	C571.364502,467.158997 559.878357,460.501190 548.578125,453.541595 
	C542.228943,449.631348 541.570374,444.202423 546.146973,438.442719 
	C556.582886,425.309082 566.373474,411.572998 580.090332,401.469360 
	C595.712158,389.962463 612.697327,383.864258 632.680298,388.915710 
z"/>
<path fill="#12AD57" opacity="1.000000" stroke="none" 
	d="
M451.607544,44.396400 
	C455.427734,46.815804 459.373596,48.584320 462.328552,51.394684 
	C464.791840,53.737476 466.917847,57.101254 467.714996,60.372997 
	C468.903625,65.251694 466.148590,67.338211 461.198273,68.118637 
	C455.061920,69.086052 448.559570,69.913177 443.104584,72.603783 
	C427.981964,80.062912 411.782562,83.359993 395.518707,86.611542 
	C391.142761,87.486404 386.536224,84.962280 386.210754,80.445732 
	C385.658722,72.784966 385.177246,64.679436 387.069519,57.384289 
	C389.975616,46.180706 394.844696,35.477127 399.035217,24.620979 
	C400.460541,20.928347 403.553345,20.263731 406.859772,21.827438 
	C419.307922,27.714611 431.703125,33.715401 444.066589,39.778790 
	C446.593536,41.018082 448.897400,42.712200 451.607544,44.396400 
z"/>
<path fill="#13AD57" opacity="1.000000" stroke="none" 
	d="
M593.985718,30.006399 
	C598.305054,33.379089 602.323975,36.561768 606.041992,39.506115 
	C591.953308,45.821579 577.187866,48.099075 561.981628,49.150528 
	C550.929749,49.914722 540.008911,52.596035 529.034546,54.451622 
	C522.181274,55.610401 515.339539,56.837528 508.487823,58.005932 
	C504.868683,58.623089 502.807037,57.078407 502.089020,53.465988 
	C500.781219,46.886593 502.255127,41.762634 507.811584,37.207031 
	C515.385620,30.997225 522.724854,24.312784 529.163696,16.955727 
	C536.670959,8.377863 545.167053,6.977063 555.623047,9.599257 
	C570.056702,13.218937 582.190918,20.835949 593.985718,30.006399 
z"/>
<path fill="#D3A553" opacity="1.000000" stroke="none" 
	d="
M601.881592,693.315186 
	C599.979431,693.726868 597.978699,693.929810 595.994446,693.824219 
	C587.407043,693.367432 582.920227,688.729492 582.898376,680.147461 
	C582.846680,659.843140 582.883789,639.538635 582.878296,619.234192 
	C582.873352,601.093445 582.859375,582.952637 582.816650,564.330078 
	C591.423706,554.152466 595.539856,542.229126 599.614746,529.856506 
	C599.906494,574.666260 599.955444,619.784851 600.001404,664.903503 
	C600.008545,671.896240 599.854004,678.893860 600.084412,685.879028 
	C600.162842,688.257019 601.194519,690.603577 601.881592,693.315186 
z"/>
<path fill="#092D18" opacity="1.000000" stroke="none" 
	d="
M546.730957,133.052063 
	C548.268921,133.750977 550.242065,134.057602 551.279175,135.208023 
	C565.344238,150.810364 570.884583,169.152786 566.634705,189.676910 
	C563.857422,203.089691 551.675537,206.579529 541.057617,197.929031 
	C540.285278,197.299820 539.449768,196.696030 538.842651,195.923965 
	C525.843445,179.394638 519.559509,160.788834 521.988892,139.687042 
	C522.357117,136.488541 523.766663,133.261993 525.305420,130.373932 
	C529.916382,121.719788 534.649292,121.197716 541.293518,128.607025 
	C537.441528,129.071198 534.647766,130.395035 533.476929,134.136871 
	C531.639038,140.010498 535.088989,152.454544 540.095398,156.016266 
	C542.179565,157.499054 545.716431,159.015900 547.548645,158.192871 
	C549.378906,157.370667 551.063354,153.497467 550.777405,151.216843 
	C550.009277,145.089111 548.154297,139.097641 546.730957,133.052063 
z"/>
<path fill="#D3A654" opacity="1.000000" stroke="none" 
	d="
M582.993774,474.212524 
	C583.655945,464.751495 587.716309,461.015808 596.903687,461.003204 
	C615.963379,460.977051 635.023010,460.970337 655.014832,460.953583 
	C680.633911,460.916504 705.320923,460.881470 730.007874,460.846436 
	C743.731262,460.897186 757.455200,460.901672 771.177490,461.053589 
	C773.026550,461.074036 774.867493,461.836395 776.917603,462.608276 
	C722.207031,462.976685 667.290955,462.991241 612.374878,463.010895 
	C610.545288,463.011566 608.696655,462.906281 606.889832,463.124023 
	C602.371643,463.668427 599.688049,465.617249 599.911438,470.881622 
	C600.242676,478.687744 599.960999,486.519928 599.905396,494.840149 
	C596.329590,486.781006 590.832153,479.785034 582.993774,474.212524 
z"/>
<path fill="#E0E5E1" opacity="1.000000" stroke="none" 
	d="
M546.795410,133.029114 
	C548.154297,139.097641 550.009277,145.089111 550.777405,151.216843 
	C551.063354,153.497467 549.378906,157.370667 547.548645,158.192871 
	C545.716431,159.015900 542.179565,157.499054 540.095398,156.016266 
	C535.088989,152.454544 531.639038,140.010498 533.476929,134.136871 
	C534.647766,130.395035 537.441528,129.071198 541.449097,128.889984 
	C543.021606,129.750519 544.212646,130.660522 545.726501,132.022766 
	C546.338745,132.693481 546.628174,132.911957 546.917603,133.130417 
	C546.917603,133.130417 546.859985,133.006165 546.795410,133.029114 
z"/>
<path fill="#092D18" opacity="1.000000" stroke="none" 
	d="
M546.994324,132.816803 
	C546.628174,132.911957 546.338745,132.693481 546.011780,132.171906 
	C546.339844,132.080261 546.705444,132.291733 546.994324,132.816803 
z"/>
<path fill="#13AD57" opacity="1.000000" stroke="none" 
	d="
M608.461182,41.507690 
	C608.448181,41.483150 608.474121,41.532234 608.461182,41.507690 
z"/>
<path fill="#F7F4CB" opacity="1.000000" stroke="none" 
	d="
M526.964539,739.965088 
	C526.867371,740.177246 526.791077,740.408386 526.714722,740.639587 
	C526.681763,740.465210 526.648804,740.290894 526.822021,740.068726 
	C527.028198,740.020935 526.985413,739.984131 526.964539,739.965088 
z"/>
<path fill="#5AB873" opacity="1.000000" stroke="none" 
	d="
M730.005371,460.424408 
	C705.320923,460.881470 680.633911,460.916504 655.482178,460.903870 
	C649.479187,445.959808 643.897339,431.079285 638.477234,416.140045 
	C637.990540,414.798584 638.550781,413.077332 638.823242,411.261810 
	C658.880859,409.822205 678.455322,412.793304 697.818481,416.291168 
	C714.643982,419.330536 724.179565,431.044128 727.930542,447.468079 
	C728.871704,451.588989 729.325256,455.821259 730.005371,460.424408 
z"/>
<path fill="#040402" opacity="1.000000" stroke="none" 
	d="
M714.797363,619.980591 
	C687.850281,628.110657 663.625793,615.277893 656.611816,589.990417 
	C647.527283,557.237427 676.675842,529.558716 706.424438,534.613586 
	C726.058838,537.949768 740.546936,553.843140 742.780090,569.576782 
	C746.200745,593.677124 736.284119,610.468811 714.797363,619.980591 
M669.393677,555.282715 
	C668.562866,555.605286 667.410339,555.683655 666.951233,556.288452 
	C662.652039,561.951477 661.024475,568.541504 660.046448,575.621887 
	C665.660461,575.621887 670.725952,575.621887 675.728333,575.621887 
	C676.450012,569.724487 677.131470,564.156372 677.867920,558.138672 
	C675.321106,557.330933 672.692627,556.497314 669.393677,555.282715 
M727.347839,556.039429 
	C725.311768,556.686096 723.275635,557.332825 720.960815,558.068115 
	C721.583557,564.051270 722.190979,569.886780 722.792053,575.661377 
	C728.198792,575.661377 733.119202,575.661377 738.243103,575.661377 
	C738.050781,568.749512 736.278076,562.622742 732.383057,557.288208 
	C731.664001,556.303345 729.568909,556.323181 727.347839,556.039429 
M734.670105,595.969666 
	C736.091736,591.182800 737.513367,586.395935 739.029907,581.289673 
	C732.983704,581.289673 727.943359,581.289673 722.715820,581.289673 
	C722.126770,587.248230 721.564270,592.938232 720.981018,598.838562 
	C724.405029,599.898987 727.615723,600.893372 730.899353,601.910278 
	C732.141785,599.934204 733.191528,598.264526 734.670105,595.969666 
M666.609985,581.001709 
	C664.500183,581.001709 662.390381,581.001709 658.911133,581.001709 
	C661.827759,588.684753 664.394409,595.445984 667.000671,602.311462 
	C671.559509,600.791748 674.765198,599.723145 677.902710,598.677185 
	C677.140930,592.616150 676.429016,586.952209 675.681152,581.001709 
	C672.817871,581.001709 670.189331,581.001709 666.609985,581.001709 
M696.714722,575.071838 
	C696.714722,570.163757 696.714722,565.255676 696.714722,560.193665 
	C692.023560,559.729492 687.652100,559.296997 682.654480,558.802490 
	C681.987122,564.720337 681.376465,570.135742 680.746216,575.724487 
	C686.503296,575.724487 691.274658,575.724487 696.714722,575.071838 
M688.513977,581.000977 
	C686.087646,581.000977 683.661377,581.000977 680.550354,581.000977 
	C681.369934,587.155518 682.093018,592.585571 682.837769,598.178589 
	C688.008606,597.600708 692.235840,597.128296 696.642212,596.635864 
	C696.642212,591.464600 696.642212,586.428345 696.642212,581.000977 
	C694.052124,581.000977 691.761292,581.000977 688.513977,581.000977 
M702.850037,575.787292 
	C707.751465,575.787292 712.652832,575.787292 718.175110,575.787292 
	C717.360962,569.779480 716.628235,564.372986 715.861938,558.718567 
	C710.878418,559.260254 706.656555,559.719177 702.179871,560.205811 
	C702.179871,565.282898 702.179871,570.202515 702.850037,575.787292 
M716.627258,593.967712 
	C717.048523,589.780396 717.469849,585.593079 717.894470,581.372681 
	C712.233459,581.372681 707.201477,581.372681 702.396606,581.372681 
	C702.396606,586.792358 702.396606,591.835754 702.396606,596.620667 
	C705.924500,597.084717 709.052185,597.394653 712.140076,597.933228 
	C714.777405,598.393250 716.265808,597.611511 716.627258,593.967712 
M691.809570,554.934875 
	C693.396423,554.934875 694.983276,554.934875 696.601318,554.934875 
	C696.601318,549.367310 696.601318,544.349243 696.601318,539.318054 
	C689.091431,539.827820 686.671692,542.804077 684.669556,553.657837 
	C686.763489,554.056213 688.859253,554.454956 691.809570,554.934875 
M696.948242,604.772888 
	C695.987427,603.848877 695.033142,602.151062 694.064636,602.142944 
	C690.905151,602.116211 687.740417,602.705872 684.463806,603.071167 
	C689.134338,618.262146 690.256470,617.980957 696.950806,616.555908 
	C696.950806,612.985840 696.950806,609.351929 696.948242,604.772888 
M704.088257,539.174133 
	C703.408997,539.633179 702.154541,540.074402 702.139709,540.554016 
	C701.992554,545.305176 702.050537,550.062561 702.050537,555.299988 
	C706.423279,554.771240 710.162048,554.319153 714.643982,553.777222 
	C711.568420,548.402161 712.843872,540.975830 704.088257,539.174133 
M710.735352,613.154602 
	C711.942993,609.981201 713.150696,606.807861 714.615112,602.959778 
	C710.077026,602.535645 706.257141,602.178650 702.208252,601.800232 
	C702.208252,607.405579 702.208252,612.295654 702.208252,618.783569 
	C705.476562,616.772034 707.894165,615.284119 710.735352,613.154602 
M717.675781,547.100891 
	C718.305847,548.953247 718.935852,550.805664 719.666504,552.953796 
	C722.152222,552.199402 724.425354,551.509583 727.727722,550.507385 
	C723.633911,547.594055 720.326599,545.240417 715.960632,542.133362 
	C716.718201,544.615662 717.002930,545.548706 717.675781,547.100891 
M680.128723,607.143860 
	C677.958496,600.238403 674.972778,606.829468 672.444336,605.851807 
	C672.339722,606.250427 672.235107,606.648987 672.130493,607.047546 
	C675.264954,609.288269 678.399475,611.528992 681.533997,613.769653 
	C681.802368,613.569702 682.070801,613.369690 682.339233,613.169739 
	C681.691345,611.390137 681.043457,609.610535 680.128723,607.143860 
M718.995850,605.535583 
	C718.123535,608.108704 717.251221,610.681824 715.874695,614.742188 
	C720.336914,611.500854 723.569580,609.152710 726.802246,606.804504 
	C726.705505,606.374573 726.608765,605.944702 726.511963,605.514771 
	C724.072144,605.276855 721.632385,605.038940 718.995850,605.535583 
M678.416321,552.766968 
	C679.790466,549.765442 681.164673,546.763916 682.538818,543.762451 
	C682.171204,543.492859 681.803528,543.223267 681.435913,542.953674 
	C678.235840,545.327393 675.035828,547.701172 671.234924,550.520630 
	C673.979980,551.436462 675.824707,552.051941 678.416321,552.766968 
z"/>
<path fill="#D5B457" opacity="1.000000" stroke="none" 
	d="
M669.728882,555.473206 
	C672.692627,556.497314 675.321106,557.330933 677.867920,558.138672 
	C677.131470,564.156372 676.450012,569.724487 675.728333,575.621887 
	C670.725952,575.621887 665.660461,575.621887 660.046448,575.621887 
	C661.024475,568.541504 662.652039,561.951477 666.951233,556.288452 
	C667.410339,555.683655 668.562866,555.605286 669.728882,555.473206 
z"/>
<path fill="#D5B457" opacity="1.000000" stroke="none" 
	d="
M727.728394,555.959351 
	C729.568909,556.323181 731.664001,556.303345 732.383057,557.288208 
	C736.278076,562.622742 738.050781,568.749512 738.243103,575.661377 
	C733.119202,575.661377 728.198792,575.661377 722.792053,575.661377 
	C722.190979,569.886780 721.583557,564.051270 720.960815,558.068115 
	C723.275635,557.332825 725.311768,556.686096 727.728394,555.959351 
z"/>
<path fill="#D6B456" opacity="1.000000" stroke="none" 
	d="
M734.455688,596.282227 
	C733.191528,598.264526 732.141785,599.934204 730.899353,601.910278 
	C727.615723,600.893372 724.405029,599.898987 720.981018,598.838562 
	C721.564270,592.938232 722.126770,587.248230 722.715820,581.289673 
	C727.943359,581.289673 732.983704,581.289673 739.029907,581.289673 
	C737.513367,586.395935 736.091736,591.182800 734.455688,596.282227 
z"/>
<path fill="#D7B557" opacity="1.000000" stroke="none" 
	d="
M667.085388,581.001709 
	C670.189331,581.001709 672.817871,581.001709 675.681152,581.001709 
	C676.429016,586.952209 677.140930,592.616150 677.902710,598.677185 
	C674.765198,599.723145 671.559509,600.791748 667.000671,602.311462 
	C664.394409,595.445984 661.827759,588.684753 658.911133,581.001709 
	C662.390381,581.001709 664.500183,581.001709 667.085388,581.001709 
z"/>
<path fill="#D4B458" opacity="1.000000" stroke="none" 
	d="
M696.380371,575.398193 
	C691.274658,575.724487 686.503296,575.724487 680.746216,575.724487 
	C681.376465,570.135742 681.987122,564.720337 682.654480,558.802490 
	C687.652100,559.296997 692.023560,559.729492 696.714722,560.193665 
	C696.714722,565.255676 696.714722,570.163757 696.380371,575.398193 
z"/>
<path fill="#D6B557" opacity="1.000000" stroke="none" 
	d="
M688.992188,581.000977 
	C691.761292,581.000977 694.052124,581.000977 696.642212,581.000977 
	C696.642212,586.428345 696.642212,591.464600 696.642212,596.635864 
	C692.235840,597.128296 688.008606,597.600708 682.837769,598.178589 
	C682.093018,592.585571 681.369934,587.155518 680.550354,581.000977 
	C683.661377,581.000977 686.087646,581.000977 688.992188,581.000977 
z"/>
<path fill="#D5B457" opacity="1.000000" stroke="none" 
	d="
M702.514954,575.454712 
	C702.179871,570.202515 702.179871,565.282898 702.179871,560.205811 
	C706.656555,559.719177 710.878418,559.260254 715.861938,558.718567 
	C716.628235,564.372986 717.360962,569.779480 718.175110,575.787292 
	C712.652832,575.787292 707.751465,575.787292 702.514954,575.454712 
z"/>
<path fill="#D8B657" opacity="1.000000" stroke="none" 
	d="
M716.500183,594.385193 
	C716.265808,597.611511 714.777405,598.393250 712.140076,597.933228 
	C709.052185,597.394653 705.924500,597.084717 702.396606,596.620667 
	C702.396606,591.835754 702.396606,586.792358 702.396606,581.372681 
	C707.201477,581.372681 712.233459,581.372681 717.894470,581.372681 
	C717.469849,585.593079 717.048523,589.780396 716.500183,594.385193 
z"/>
<path fill="#D2B257" opacity="1.000000" stroke="none" 
	d="
M691.382263,554.894287 
	C688.859253,554.454956 686.763489,554.056213 684.669556,553.657837 
	C686.671692,542.804077 689.091431,539.827820 696.601318,539.318054 
	C696.601318,544.349243 696.601318,549.367310 696.601318,554.934875 
	C694.983276,554.934875 693.396423,554.934875 691.382263,554.894287 
z"/>
<path fill="#D4B357" opacity="1.000000" stroke="none" 
	d="
M696.949524,605.245483 
	C696.950806,609.351929 696.950806,612.985840 696.950806,616.555908 
	C690.256470,617.980957 689.134338,618.262146 684.463806,603.071167 
	C687.740417,602.705872 690.905151,602.116211 694.064636,602.142944 
	C695.033142,602.151062 695.987427,603.848877 696.949524,605.245483 
z"/>
<path fill="#D6B557" opacity="1.000000" stroke="none" 
	d="
M704.495483,539.268677 
	C712.843872,540.975830 711.568420,548.402161 714.643982,553.777222 
	C710.162048,554.319153 706.423279,554.771240 702.050537,555.299988 
	C702.050537,550.062561 701.992554,545.305176 702.139709,540.554016 
	C702.154541,540.074402 703.408997,539.633179 704.495483,539.268677 
z"/>
<path fill="#D6B557" opacity="1.000000" stroke="none" 
	d="
M710.523560,613.475342 
	C707.894165,615.284119 705.476562,616.772034 702.208252,618.783569 
	C702.208252,612.295654 702.208252,607.405579 702.208252,601.800232 
	C706.257141,602.178650 710.077026,602.535645 714.615112,602.959778 
	C713.150696,606.807861 711.942993,609.981201 710.523560,613.475342 
z"/>
<path fill="#C8AA55" opacity="1.000000" stroke="none" 
	d="
M717.481750,546.791321 
	C717.002930,545.548706 716.718201,544.615662 715.960632,542.133362 
	C720.326599,545.240417 723.633911,547.594055 727.727722,550.507385 
	C724.425354,551.509583 722.152222,552.199402 719.666504,552.953796 
	C718.935852,550.805664 718.305847,548.953247 717.481750,546.791321 
z"/>
<path fill="#CAAB56" opacity="1.000000" stroke="none" 
	d="
M680.262146,607.487427 
	C681.043457,609.610535 681.691345,611.390137 682.339233,613.169739 
	C682.070801,613.369690 681.802368,613.569702 681.533997,613.769653 
	C678.399475,611.528992 675.264954,609.288269 672.130493,607.047546 
	C672.235107,606.648987 672.339722,606.250427 672.444336,605.851807 
	C674.972778,606.829468 677.958496,600.238403 680.262146,607.487427 
z"/>
<path fill="#C8AA55" opacity="1.000000" stroke="none" 
	d="
M719.094238,605.168335 
	C721.632385,605.038940 724.072144,605.276855 726.511963,605.514771 
	C726.608765,605.944702 726.705505,606.374573 726.802246,606.804504 
	C723.569580,609.152710 720.336914,611.500854 715.874695,614.742188 
	C717.251221,610.681824 718.123535,608.108704 719.094238,605.168335 
z"/>
<path fill="#CAAB56" opacity="1.000000" stroke="none" 
	d="
M678.042908,552.717163 
	C675.824707,552.051941 673.979980,551.436462 671.234924,550.520630 
	C675.035828,547.701172 678.235840,545.327393 681.435913,542.953674 
	C681.803528,543.223267 682.171204,543.492859 682.538818,543.762451 
	C681.164673,546.763916 679.790466,549.765442 678.042908,552.717163 
z"/>
</svg>